PathFileType	4	(X/Y/Z)	D:\Temporary Files\修改scale文件\BD0001.trc
DataRate	CameraRate	NumFrames	NumMarkers	Units	OrigDataRate	OrigDataStartFrame	OrigNumFrames
200.000000	200.000000	4	38	mm	200.000000	603	804
Frame#	Time	Top.Head			L.Acromium			R.Acromium			Sternum			L.ASIS			R.ASIS			V.Sacral			R.Knee.Lat			R.Knee.Med			L.Knee.Lat			L.Knee.Med			L.Ankle.Lat			L.Toe.Tip			R.Heel			R.Ankle.Med			R.Ankle.Lat			L.Toe.Med			L.Toe.Lat			L.Heel			L.Ankle.Med			L.Shank1			L.Shank2			R.Toe.Tip			R.Toe.Med			R.Toe.Lat			L.PSIS			R.PSIS			R.iliac.crest			L.iliac.crest			L.Shank3			L.Shank4			R.Shank4			L.Thigh4			R.Thigh4			R.Heel.Lat			R.Heel.Med			L.Heel.Lat			L.Heel.Med			
		X1	Y1	Z1	X2	Y2	Z2	X3	Y3	Z3	X4	Y4	Z4	X5	Y5	Z5	X6	Y6	Z6	X7	Y7	Z7	X8	Y8	Z8	X9	Y9	Z9	X10	Y10	Z10	X11	Y11	Z11	X12	Y12	Z12	X13	Y13	Z13	X14	Y14	Z14	X15	Y15	Z15	X16	Y16	Z16	X17	Y17	Z17	X18	Y18	Z18	X19	Y19	Z19	X20	Y20	Z20	X21	Y21	Z21	X22	Y22	Z22	X23	Y23	Z23	X24	Y24	Z24	X25	Y25	Z25	X26	Y26	Z26	X27	Y27	Z27	X28	Y28	Z28	X29	Y29	Z29	X30	Y30	Z30	X31	Y31	Z31	X32	Y32	Z32	X33	Y33	Z33	X34	Y34	Z34	X35	Y35	Z35	X36	Y36	Z36	X37	Y37	Z37	X38	Y38	Z38	
604	3.015	926.068417995936	1692.81612623481	-991.509512672988	935.351260843321	1410.3896140323	-816.780261406318	1093.34232336606	1400.06874233079	-1089.74441958254	901.943564159467	1359.24846179558	-1018.3476418321	805.809164669011	912.269437152291	-931.350420465855	928.438164320336	931.868076915076	-1133.48422586253	1010.10306280379	964.182828414027	-952.622669935191	1003.93940742588	475.039387872961	-1165.38430811341	948.787887904348	454.660844605651	-1065.3686011977	849.714659538635	476.09724317878	-846.830845338607	886.462225783008	456.943461035984	-949.817064176228	907.054300671899	102.789322319799	-808.610532036877	726.952461744275	56.4963933066885	-869.01564311948	1104.93496229678	34.2802878386183	-1104.17158906101	990.270393900825	103.17042361023	-1115.25257624053	1060.73546426756	104.828291685631	-1173.92996629183	786.941084521207	45.3042001548139	-907.814432460325	793.480183624038	46.3853228426734	-802.795398865082	1001.374318897	31.4135553845177	-814.542416117872	927.22709345282	104.556986485158	-894.516526005817	831.557488503297	388.335629891079	-837.19945081912	829.688512833428	307.711154396894	-819.09008664358	876.021095490271	54.6349583124816	-1277.24522818153	900.031980144316	44.5454501407285	-1205.3783248527	986.4976481385	37.4665877476899	-1275.02739507139	976.884183100168	962.954376722917	-909.764851159617	1031.29761012092	964.536813330433	-998.69716376674	971.508283913707	988.909317324154	-1122.1228718116	836.172044803739	989.519719456839	-899.112592715792	883.96206099911	395.955069851381	-801.118818662783	885.712047021998	309.820271777478	-784.716816752586	1062.74074207755	317.31772281491	-1187.07242026835	837.811552647659	605.472445919827	-833.428505308741	1031.76445833921	568.296299756265	-1148.76091120729	1098.30184158199	32.1214110069691	-1172.68634885174	1024.78862810264	25.2775539922884	-1100.98678246291	935.344115479103	22.2917337790671	-780.063150293846	956.483042509924	27.2825501314895	-883.572220398617
605	3.02	926.025195839844	1692.82136806928	-991.5074536092	935.326944788163	1410.39486577454	-816.76824212212	1093.32707771691	1400.07640554844	-1089.73636880135	901.920541415717	1359.24501199496	-1018.33870658455	805.813010478691	912.271450349951	-931.353793956294	928.440304102425	931.867396681336	-1133.48341700759	1010.09652195478	964.190370453985	-952.624319549768	1003.94859712758	475.040423103892	-1165.3803517965	948.789481315316	454.660854765451	-1065.37095098125	849.712007234844	476.100207991589	-846.846627754558	886.460544067014	456.943633553258	-949.822205493299	907.05746496401	102.798649307568	-808.59536751224	726.949502907837	56.4992507604134	-869.013749315033	1104.93355923594	34.2818635805509	-1104.17027740956	990.270979934545	103.16864016668	-1115.24600430722	1060.74241474242	104.829333840671	-1173.92300419233	786.940472598861	45.3058754529958	-907.808931032743	793.478470298034	46.3846685720577	-802.794467353055	1001.37057850446	31.4122168114458	-814.542570413232	927.219062144858	104.556520841391	-894.514535407682	831.560818825924	388.335735053438	-837.195915805501	829.693900020256	307.715639354525	-819.085989643159	876.021999742451	54.636746800264	-1277.24366836471	900.031741154928	44.5477596394533	-1205.37600353193	986.494204653928	37.4695297387235	-1275.02367282789	976.878902005707	962.963731142144	-909.772966365521	1031.29894372111	964.546118337148	-998.701732250006	971.510090902107	988.916022187625	-1122.12398800182	836.165500239527	989.519417813891	-899.126690957706	883.960759346304	395.956771646555	-801.115131314333	885.712919362835	309.818536628598	-784.715573810831	1062.74794997784	317.320752123316	-1187.06975851745	837.886414308717	605.412032735058	-833.419022330494	1031.77484540571	568.302325498635	-1148.75083380219	1098.30133954617	32.1243007807294	-1172.68530063034	1024.78724399007	25.2780913649027	-1100.98586009553	935.339242414271	22.2895946295488	-780.058823759064	956.480393632659	27.2843789506669	-883.574490638978
606	3.025	925.979784790938	1692.82763247208	-991.506991894843	935.305320565831	1410.39927526443	-816.756492325602	1093.31227109918	1400.08593868135	-1089.72835432485	901.898347496685	1359.24344644884	-1018.33020015303	805.818634534961	912.27265932492	-931.35638161781	928.443877614761	931.868296715754	-1133.48283846678	1010.09141279876	964.197703790103	-952.626849211594	1003.95878203677	475.042641300866	-1165.37625829182	948.792010224895	454.663160332652	-1065.37358474839	849.712373438209	476.103798598968	-846.857306773085	886.455990135305	456.945183238975	-949.828897127414	907.063301084804	102.811913897595	-808.579983470727	726.948082319257	56.5019923762653	-869.011997900751	1104.93219038571	34.2832934267651	-1104.16989663122	990.272824504811	103.171410550822	-1115.24148225106	1060.7444495426	104.826539351206	-1173.91854224569	786.937961651677	45.3092941291917	-907.803815071904	793.477088354877	46.3836332919325	-802.793803927271	1001.36696844017	31.4123472173363	-814.543432530003	927.21278470009	104.557835396011	-894.512837178655	831.563235815538	388.337144945458	-837.191729399241	829.6993296882	307.719349639241	-819.083922139771	876.021781297546	54.6407281273877	-1277.24241213899	900.032346731845	44.5503262100786	-1205.37534497249	986.493146503012	37.4715706757849	-1275.02054146599	976.87542120078	962.976115276953	-909.778973029068	1031.30230114054	964.558749987403	-998.706728018921	971.511971119308	988.924776425182	-1122.12732346957	836.160891532272	989.520620505364	-899.141244539174	883.959473573596	395.959138475551	-801.11231020541	885.71278599368	309.816309621374	-784.715167219637	1062.75470937251	317.323145199232	-1187.06809644073	837.934565010426	605.378999368197	-833.406130004417	1031.78565962546	568.307729727808	-1148.74034207976	1098.30088748945	32.1288710325889	-1172.68489123254	1024.78710222417	25.2800438221093	-1100.98560433736	935.335217588808	22.2890850291802	-780.054689159721	956.477098045861	27.2858890342067	-883.57702790354
607	3.03	925.932886872519	1692.83457527316	-991.507875195552	935.286314021793	1410.40244256921	-816.746043943689	1093.297791844	1400.0985349905	-1089.72030924323	901.877871100913	1359.24502201014	-1018.32257585495	805.82606731702	912.273947870796	-931.359111725892	928.450039113277	931.87124575703	-1133.48334124293	1010.08907514176	964.20502706171	-952.630028573883	1003.96916093993	475.046815160135	-1165.37326530139	948.79621058354	454.668349776027	-1065.37623067252	849.713286927176	476.108763310941	-846.865272915936	886.45057352519	456.94795143476	-949.836470311199	907.070935328478	102.826523569746	-808.567932399048	726.948547061352	56.5055703388773	-869.010329979906	1104.93158389787	34.2852298309543	-1104.17096433001	990.275858363225	103.177628255283	-1115.23934563065	1060.74091949725	104.820445105195	-1173.91641119737	786.934045873019	45.3139900315866	-907.80058933391	793.47636129143	46.3828911483642	-802.793913945963	1001.36489752595	31.4157315437123	-814.544668677506	927.209742407887	104.561778376563	-894.512036421359	831.564525276215	388.340238626256	-837.188673061767	829.704450045629	307.722595149777	-819.08481198936	876.020537001069	54.6479673555581	-1277.24153288158	900.033388535726	44.5542460332608	-1205.37715113603	986.494690059098	37.4750991826244	-1275.01895330879	976.87456593136	962.990754254177	-909.78120037545	1031.3084409702	964.574492490418	-998.7115308597	971.514345700064	988.93628409851	-1122.13295683327	836.158675424951	989.522932025943	-899.155020710235	883.959095974472	395.962851624569	-801.11132554902	885.712068180085	309.814365205674	-784.715732379842	1062.76010168376	317.324273659121	-1187.06782081587	837.941717515425	605.390732069979	-833.385444691845	1031.79656385513	568.311795128351	-1148.73091514503	1098.30057172026	32.1350249243226	-1172.68509951832	1024.78849072231	25.283580330108	-1100.98660142458	935.333112327238	22.2910870147058	-780.051695710648	956.473030197947	27.2887404348061	-883.579752386823
